<?xml version="1.0" encoding="utf-8"?>
<!-- Generator: Adobe Illustrator 15.0.0, SVG Export Plug-In . SVG Version: 6.00 Build 0)  -->
<!DOCTYPE svg PUBLIC "-//W3C//DTD SVG 1.1//EN" "http://www.w3.org/Graphics/SVG/1.1/DTD/svg11.dtd">
<svg version="1.1" xmlns="http://www.w3.org/2000/svg" xmlns:xlink="http://www.w3.org/1999/xlink" x="0px" y="0px"
	 width="779.804px" height="465.087px" viewBox="0 0 779.804 465.087" enable-background="new 0 0 779.804 465.087"
	 xml:space="preserve">
<g id="tigre">
	<path id="langue_1_" d="M677.484,58.51c5.532-14.828,12.738-24.166,5.275-28.623c-2.624-0.98-9.239,10.248-14.776,25.074
		c-5.533,14.83-7.894,27.646-5.272,28.623C665.335,84.561,671.949,73.336,677.484,58.51z"/>
	<polyline id="oreille" points="617.375,80.317 588.124,68.213 615.278,51.25 	"/>
	<path id="tête_2_" d="M690.912,38.252c6.506,7.07,13.594,6.076,7.553,15.412c-22.722,35.111-32.465,43.939-38.839,49.5
		c-24.736,21.57-36.628-1.701-46.698-16.234c-15.875-22.914,6.302-50.676,33.198-57.982c4.04-1.1,12.892-9.964,18.376-9.374
		l6.534,3.775c2.916,0.622-2.564,6.588-9.077,13.6c-7.914,8.529,2.715,16.551,8.883,17.822
		C677.397,56.125,684.766,49.358,690.912,38.252L690.912,38.252z"/>
	<line id="moustache_1" fill="#FFFFFF" stroke="#000000" stroke-width="0.2" x1="661.599" y1="28.696" x2="657.66" y2="10"/>
	<line id="moustache_2" fill="#FFFFFF" stroke="#000000" stroke-width="0.2" x1="661.599" y1="28.696" x2="665.272" y2="11.639"/>
	<line id="moustache_3" fill="#FFFFFF" stroke="#000000" stroke-width="0.2" x1="661.599" y1="28.696" x2="674.457" y2="13.62"/>
	<path id="corps_2_" d="M769.805,436.838c-17.187,12.168-35.193,16.674-54.018,16.674c-25.915,0-48.923-4.469-69.864-34.781
		c-19.885-28.779-24.383-75.211-24.383-135.854c0-29.383,2.241-55.955,6.73-79.727c4.487-23.768,10.893-43.938,19.212-60.502
		c8.316-16.564,15.969-22.844,30.211-31.74c14.241-8.896,30.59-11.807,39.733-11.807c9.96,0,19.212-0.123,27.749,2.777
		c8.538,2.902,16.749,5.678,24.629,11.666v35.873c-7.772-7.301-15.818-11.199-24.135-15.037c-9.809-3.486-14.297-5.17-27.257-4.086
		c-12.959,1.086-19.185,6.473-27.338,12.93c-8.155,6.459-15.08,17.488-20.77,29.744c-5.694,12.262-10.073,27.234-13.137,44.922
		c-3.064,17.684-4.597,37.85-4.597,60.494c0,47.545,5.636,83.383,16.912,107.529c11.272,24.145,27.802,36.217,49.586,36.217
		c9.193,0,18.004-1.824,26.435-5.473c8.428-3.65,16.527-8.75,24.3-15.305V436.838z"/>
	<path id="œil" fill="#FFFFFF" d="M640.648,44.721l-3.052,3.07l-0.603-8.109l3.839-3.861l8.112,0.551l-3.065,3.084l-5.653-0.387
		L640.648,44.721z"/>
</g>
<g id="serpent">
	<path id="tête_5_" d="M421.708,128.788l0.455,58.449c0.15,19.143-15.247,34.783-34.393,34.934l0,0
		c-19.144,0.148-34.783-15.248-34.933-34.391l-0.454-58.451"/>
	<path id="langue_3_" d="M381.912,278.897c0.996,0.078,3.071-16.283,4.634-36.539c1.564-20.252,2.021-36.734,1.021-36.812
		c-1.001-0.078-3.073,16.283-4.639,36.535C381.367,262.336,380.909,278.821,381.912,278.897z"/>
	<polygon id="œil_droit_2" display="none" fill="#FFFFFF" points="604.407,-53.104 596.837,-58.257 597.516,-67.387 
		605.762,-71.366 613.328,-66.214 612.651,-57.085 	"/>
	<polygon id="œil_gauche_1" display="none" fill="#FFFFFF" points="565.721,-51.134 558.153,-56.285 558.829,-65.414 
		567.076,-69.395 574.644,-64.24 573.967,-55.113 	"/>
	<path id="corps_5_" d="M371.799,116.53c4.189-18.725,12.759-35.379,25.626-49.74c19.086-21.307,42.722-32.109,70.25-32.109
		c27.516,0,51.225,10.797,70.47,32.094c19.154,21.213,28.866,47.414,28.866,77.877c0,5.334-0.324,10.762-0.965,16.129
		c-0.653,5.436-1.646,10.414-2.953,14.809c-1.225,4.092-2.485,8.139-3.751,12.041c-1.339,4.104-3.03,7.973-5.033,11.51
		c-1.864,3.299-3.496,6.164-4.896,8.588c-1.497,2.602-3.255,5.221-5.227,7.779c-1.907,2.488-3.469,4.412-4.637,5.715
		c-1.162,1.299-2.548,2.67-4.119,4.078l-1.807,2.014l-12.541,12.953c-52.674,51.24-91.779,91.059-116.336,118.459
		c-4.821,6.354-7.268,14.738-7.268,24.928c0,11.32,3.401,20.617,10.396,28.418c6.892,7.701,15.21,11.443,25.43,11.443h134.183
		c0,0,0,0-0.012,0v20.799v9.91H432.841c-17.358,0-32.479-7.055-44.938-20.963c-12.364-13.803-18.634-30.49-18.634-49.607
		c0-4.75,0.331-9.355,0.984-13.688c0.676-4.537,1.882-8.865,3.586-12.846c1.56-3.66,2.994-6.867,4.264-9.516
		c1.416-2.977,3.533-6.111,6.465-9.572c2.64-3.125,4.428-5.289,5.464-6.605c1.224-1.561,3.321-3.816,6.41-6.902
		c4.004-3.996,4.626-4.654,4.71-4.748l117.107-118.787c13.63-15.256,20.539-34.209,20.539-56.338
		c0-21.814-7.014-40.709-20.846-56.158c-13.935-15.547-30.382-23.105-50.277-23.105c-19.59,0-35.807,7.475-49.581,22.848
		c-7.923,8.844-13.109,16.943-16.575,28.166"/>
	<path id="œil_gauche_2" display="none" fill="none" stroke="#FFFFFF" stroke-width="0.8" d="M559.728-59.271
		c0-3.782,3.067-6.854,6.854-6.854c3.409,0,6.169,2.761,6.169,6.17c0,3.063-2.486,5.55-5.552,5.55c-2.761,0-4.997-2.235-4.997-4.994
		c0-2.483,2.013-4.5,4.496-4.5c2.236,0,4.049,1.815,4.049,4.049c0,2.011-1.631,3.642-3.642,3.642c-1.809,0-3.28-1.468-3.28-3.278
		l0,0c0-1.434,1.24-2.65,2.678-2.65c1.145,0,2.077,0.931,2.077,2.079c0,0.919-0.746,1.664-1.664,1.664
		c-0.735,0-1.331-0.596-1.331-1.33c0-0.589,0.476-1.064,1.063-1.064c0.471,0,0.855,0.376,0.855,0.85"/>
	<path id="œil_gauche_2_2_" fill="none" stroke="#FFFFFF" stroke-width="1.7008" d="M398.35,146.944c0-0.02,0-0.041,0-0.062l0,0
		c0-3.197,2.765-5.91,5.974-5.91c2.552,0,4.632,2.076,4.632,4.637c0,2.049-1.663,3.711-3.712,3.711c-1.64,0-2.968-1.33-2.968-2.965
		c0-1.314,1.061-2.373,2.371-2.373c1.05,0,1.908,0.84,1.908,1.895"/>
	<path id="œil_gauche_2_1_" fill="none" stroke="#FFFFFF" stroke-width="1.7008" d="M363.781,146.944c0-0.02,0-0.041,0-0.062l0,0
		c0-3.197,2.766-5.91,5.974-5.91c2.553,0,4.632,2.076,4.632,4.637c0,2.049-1.662,3.711-3.711,3.711c-1.64,0-2.968-1.33-2.968-2.965
		c0-1.314,1.061-2.373,2.371-2.373c1.05,0,1.907,0.84,1.907,1.895"/>
	<path id="œil_droit2" display="none" fill="none" stroke="#FFFFFF" stroke-width="0.8" d="M598.571-61.241
		c0-3.782,3.067-6.854,6.854-6.854c3.409,0,6.169,2.761,6.169,6.17c0,3.063-2.486,5.55-5.552,5.55c-2.761,0-4.997-2.235-4.997-4.994
		c0-2.483,2.013-4.5,4.496-4.5c2.236,0,4.049,1.815,4.049,4.049c0,2.011-1.631,3.642-3.642,3.642c-1.809,0-3.28-1.468-3.28-3.278
		l0,0c0-1.434,1.24-2.65,2.678-2.65c1.145,0,2.077,0.931,2.077,2.079c0,0.919-0.746,1.664-1.664,1.664
		c-0.735,0-1.331-0.596-1.331-1.33c0-0.589,0.476-1.064,1.063-1.064c0.471,0,0.855,0.376,0.855,0.85"/>
</g>
<g id="girafe">
	<path id="corne_g" d="M108.042,19.302c1.499-0.448,2.884-1.301,2.884-2.373c0-1.509-2.041-2.731-4.561-2.731
		s-4.562,1.223-4.562,2.731c0,1.076,1.368,1.931,2.886,2.373l0,0v19.765h3.353V19.302L108.042,19.302z"/>
	<path id="corne_d" d="M119.236,19.302c1.497-0.448,2.885-1.301,2.885-2.373c0-1.509-2.041-2.731-4.563-2.731
		c-2.517,0-4.558,1.223-4.558,2.731c0,1.076,1.368,1.931,2.884,2.373l0,0v19.765h3.353V19.302L119.236,19.302z"/>
	<path id="tête_1_" d="M14.941,86.985c0,6.369,25.06,11.535,55.967,11.535c30.906,0,55.963-5.166,55.963-11.535v-3.246V37.596
		c0,0-100.81,6.623-111.93,7.748C3.824,46.469,14.941,86.985,14.941,86.985z"/>
	<path id="bouche" fill="#FFFFFF" d="M58.122,77.274c0,5.438-10.153,9.846-22.674,9.846c-4.453,0-8.604-0.555-12.107-1.518"/>
	<path id="œil_1" display="none" fill="none" stroke="#FFFFFF" stroke-width="0.3" d="M272.239-164.806
		c0-3.782,3.067-6.854,6.854-6.854c3.409,0,6.169,2.761,6.169,6.17c0,3.063-2.486,5.55-5.552,5.55c-2.761,0-4.997-2.235-4.997-4.994
		c0-2.483,2.013-4.5,4.496-4.5c2.236,0,4.049,1.815,4.049,4.049c0,2.011-1.631,3.642-3.642,3.642c-1.809,0-3.28-1.468-3.28-3.278
		l0,0c0-1.434,1.24-2.65,2.678-2.65c1.145,0,2.077,0.931,2.077,2.079c0,0.919-0.746,1.664-1.664,1.664
		c-0.735,0-1.331-0.596-1.331-1.33c0-0.589,0.476-1.064,1.063-1.064c0.471,0,0.855,0.376,0.855,0.85"/>
	<path id="corps_1_" d="M330.567,334.844v120.242h-30.882V334.844v-5.092c0-4.596-0.851-8.41-2.541-11.439
		c-1.698-3.025-3.634-5.508-5.812-7.447c-2.668-2.42-5.573-4.234-8.72-5.453c-3.875-1.447-55.531-1.586-78.434-5.93
		c-3.763-0.715-7.417-1.189-12.173-2.426c-4.229-1.094-8.117-2.779-11.987-3.992c-1.697-0.484-3.516-1.328-5.448-2.543
		c-1.942-1.213-3.152-3.145-3.632-5.812v45.043v1.822v123.512h-30.518V36.979h30.518V237.85v6.898c0,2.908,0.542,5.451,1.635,7.629
		c1.089,2.18,2.359,4.121,3.812,5.812c1.456,1.695,2.964,2.969,4.542,3.814c1.571,0.85,2.844,1.516,3.812,1.998
		c0.968,0.244,3.392,1.09,7.267,2.543c3.872,1.455,7.462,2.568,13.597,3.949c39.658,8.93,76.833,7.264,84.183,8.164
		c8.237,1.008,13.426,2.998,13.426,2.998c7.992,3.02,15.075,8.324,20.271,16.494c4.761,7.482,7.085,15.859,7.085,25.064V334.844z"/>
	<polygon id="œil_2" fill="#FFFFFF" points="110.316,61.047 103.505,56.413 104.113,48.196 111.536,44.614 118.346,49.252 
		117.738,57.467 	"/>
</g>
<g id="texte">
</g>
</svg>
